<svg xmlns="http://www.w3.org/2000/svg" width="177" height="34" fill="none" viewBox="0 0 177 34"><path fill="#fff" d="M12.762 2.498A4 4 0 0 1 16.47 0h154.594c2.837 0 4.772 2.872 3.707 5.502l-10.533 26A4 4 0 0 1 160.53 34H5.936C3.1 34 1.164 31.128 2.23 28.498z"/><path fill="#8a10a0" d="M45.224 12.344c-.144.32-.272.784-.352 1.12-.368 1.568-1.072 4.048-2.4 5.824-1.456 1.92-3.584 3.504-6.432 4.416L34.296 21.8c3.168-.752 4.976-2.144 6.272-3.76 1.056-1.328 1.664-3.152 1.872-4.512h-7.456c-.72 0-1.488.032-1.904.064v-2.256c.48.048 1.392.128 1.92.128h7.392c.32 0 .832-.016 1.264-.128zm12.544.704c-.048.384-.064.896-.064 1.328 0 .288.016.624.016.976h1.888c.416 0 1.024-.064 1.312-.096v1.936c-.384-.016-.88-.032-1.232-.032h-1.92c.048 1.904.096 4.08.112 5.712.016.832-.608 1.408-1.552 1.408-.768 0-1.76-.032-2.48-.08l-.128-1.824c.656.096 1.424.144 1.84.144.304 0 .416-.176.416-.496 0-.784-.016-1.952-.032-3.168-1.12 1.424-3.28 3.216-5.168 4.208l-1.392-1.6c2.272-1.04 4.496-2.816 5.6-4.304H51.56c-.464 0-1.04.032-1.504.064v-1.968a14 14 0 0 0 1.456.096h4.352c0-.352-.016-.672-.032-.976a14 14 0 0 0-.128-1.328zm7.248-1.392c.656.016 1.264.032 1.696.032h8.8c.4 0 1.008 0 1.584-.032-.032.48-.032 1.072-.032 1.552v7.84c0 .624.032 2.16.032 2.224h-2.208c0-.032.016-.4.016-.864h-7.712c.016.448.016.816.016.864H65c0-.08.048-1.472.048-2.24v-7.824c0-.448 0-1.104-.032-1.552m2.176 2.064v6.64h7.728v-6.64zm13.28 1.872c.576.048 1.744.096 2.576.096h8.592c.752 0 1.456-.064 1.872-.096v2.512c-.384-.016-1.2-.08-1.872-.08h-8.592c-.912 0-1.984.032-2.576.08zm20.464-5.28a25 25 0 0 0-.208 2.128c-.064 1.728-.192 5.312-.192 7.296 0 1.616.96 2.144 2.208 2.144 2.64 0 4.32-1.52 5.472-3.264l1.456 1.76c-1.024 1.536-3.296 3.68-6.944 3.68-2.624 0-4.32-1.152-4.32-3.888 0-2.144.16-6.352.16-7.728 0-.752-.064-1.52-.208-2.16zm10.716 1.68c.64-.016 1.264-.048 1.584-.08 1.328-.112 3.968-.352 6.896-.608 1.648-.128 3.408-.24 4.528-.272l.016 2.048c-.864.016-2.24.016-3.088.208-1.936.512-3.376 2.592-3.376 4.496 0 2.624 2.464 3.584 5.168 3.728l-.752 2.192c-3.344-.224-6.512-2.032-6.512-5.488 0-2.304 1.296-4.128 2.368-4.944-1.504.16-4.768.512-6.624.912zm23.872 8.768c0 .64.592.88 1.28.88.768 0 1.28-.496 1.6-1.312a3.8 3.8 0 0 0-1.632-.4c-.656 0-1.248.304-1.248.832m-4.656-9.296c0-.464.016-.944-.064-1.44l2.336.08c-.096.448-.224 1.264-.352 2.272l.592.752c-.208.288-.544.816-.816 1.232 0 .048 0 .096-.016.144 1.296-1.12 3.024-2.288 4.656-2.288 2.272 0 3.632 1.888 3.632 4.8 0 .928-.048 1.792-.176 2.576.56.4 1.104.88 1.648 1.472l-1.04 1.664a12 12 0 0 0-1.168-1.232c-.576 1.216-1.568 1.936-3.168 1.936-1.792 0-3.152-.784-3.152-2.592 0-1.44 1.232-2.496 3.168-2.496.64 0 1.248.096 1.84.288.048-.544.08-1.12.08-1.744 0-1.712-.784-2.864-2.016-2.864-1.44 0-3.184 1.424-4.464 2.864a26 26 0 0 0-.048 1.536c0 1.312 0 2.656.096 4.16.016.288.064.864.112 1.232h-2.208c.032-.352.048-.928.048-1.184.032-1.248.048-2.176.064-3.52a78 78 0 0 1-2.032 2.928l-1.248-1.744c.912-1.12 2.512-3.232 3.424-4.576.032-.368.064-.752.08-1.12-.784.096-2.016.24-2.912.368l-.208-2.048c.464.016.832.016 1.392-.016a30 30 0 0 0 1.856-.208c.032-.608.064-1.056.064-1.232m18.832 7.424-.432-5.472-.08-2.384h2.656l-.08 2.384-.432 5.472zm.816 4.256c-.816 0-1.408-.576-1.408-1.408 0-.848.608-1.424 1.408-1.424s1.408.576 1.408 1.424c0 .832-.608 1.408-1.408 1.408"/></svg>