<svg width="30" height="26" viewBox="0 0 30 26" fill="none" xmlns="http://www.w3.org/2000/svg">
<path d="M19.712 25.5676L17.152 22.6876C15.488 23.6476 13.504 24.1916 11.296 24.1916C4.60795 24.1916 -4.68493e-05 19.2316 -4.68493e-05 12.0956C-4.68493e-05 4.99162 4.63995 -0.000383377 11.328 -0.000383377C18.016 -0.000383377 22.688 4.95962 22.688 12.0956C22.688 15.4556 21.664 18.3356 19.84 20.4476L22.336 23.2316L19.712 25.5676ZM18.368 12.0956C18.368 7.10362 15.616 3.93562 11.328 3.93562C7.03995 3.93562 4.28795 7.10362 4.28795 12.0956C4.28795 17.0876 7.03995 20.2556 11.328 20.2556C12.48 20.2556 13.504 20.0316 14.432 19.5836L11.328 16.0956L13.92 13.7596L17.024 17.2476C17.888 15.9036 18.368 14.1436 18.368 12.0956ZM26.6432 24.1916C25.2352 24.1916 24.0512 23.0396 24.0512 21.6636C24.0512 20.2556 25.2352 19.1036 26.6432 19.1036C28.0512 19.1036 29.2352 20.2556 29.2352 21.6636C29.2352 23.0396 28.0512 24.1916 26.6432 24.1916Z" fill="#8B10A1"/>
</svg>
