<svg width="29" height="24" viewBox="0 0 29 24" fill="none" xmlns="http://www.w3.org/2000/svg">
<path d="M25.5393 23.7755C24.1313 23.7755 22.9473 22.6235 22.9473 21.2475C22.9473 19.8395 24.1313 18.6875 25.5393 18.6875C26.9473 18.6875 28.1313 19.8395 28.1313 21.2475C28.1313 22.6235 26.9473 23.7755 25.5393 23.7755Z" fill="#4A4A4A"/>
<path d="M4.256 23.392H0L8.448 0H12.64L21.088 23.392H16.768L14.88 17.984H6.144L4.256 23.392ZM10.016 6.976L7.36 14.528H13.696L11.008 6.976C10.816 6.368 10.592 5.664 10.528 5.184C10.432 5.632 10.24 6.336 10.016 6.976Z" fill="#4A4A4A"/>
</svg>
