<svg xmlns="http://www.w3.org/2000/svg" width="100" height="100" fill="none" viewBox="0 0 100 100"><g clip-path="url(#a)"><path fill="#ff8d02" d="M100 49.998c0 2.323-4.853 4.274-5.168 6.515-.314 2.24 3.786 5.54 3.154 7.716s-5.843 2.704-6.782 4.774c-.938 2.07 2.085 6.384.86 8.3-1.225 1.915-6.353.92-7.837 2.644-1.485 1.725.231 6.71-1.485 8.212-1.716 1.503-6.349-.924-8.257.322-1.909 1.245-1.638 6.503-3.707 7.458s-5.82-2.696-8.014-2.046c-2.195.65-3.381 5.766-5.65 6.09-2.27.326-4.811-4.25-7.116-4.25s-4.9 4.568-7.115 4.25c-2.215-.316-3.495-5.451-5.65-6.09-2.156-.638-5.965 2.994-8.015 2.046-2.05-.947-1.81-6.225-3.707-7.458s-6.55 1.177-8.257-.322c-1.708-1.498 0-6.479-1.485-8.212-1.484-1.733-6.608-.717-7.837-2.645s1.806-6.21.86-8.299c-.947-2.09-6.138-2.557-6.782-4.774s3.48-5.42 3.154-7.716S0 52.325 0 49.998s4.853-4.275 5.167-6.515-3.785-5.54-3.153-7.717 5.843-2.704 6.782-4.774c.938-2.07-2.085-6.384-.86-8.3 1.225-1.914 6.353-.919 7.837-2.644 1.485-1.725-.231-6.71 1.485-8.212 1.716-1.503 6.349.924 8.257-.321 1.909-1.245 1.638-6.503 3.707-7.459s5.82 2.697 8.014 2.046c2.195-.65 3.377-5.761 5.65-6.086s4.811 4.25 7.116 4.25 4.896-4.568 7.111-4.25 3.495 5.452 5.65 6.09c2.156.639 5.965-2.994 8.015-2.046s1.81 6.226 3.707 7.459 6.55-1.178 8.257.321c1.709 1.499 0 6.48 1.485 8.212 1.484 1.733 6.608.718 7.837 2.645s-1.806 6.21-.86 8.3c.947 2.089 6.138 2.557 6.782 4.773.644 2.217-3.48 5.42-3.154 7.717S100 47.674 100 50.002z"/></g><defs><clipPath id="a"><path fill="#fff" d="M0 0h100v100H0z"/></clipPath></defs></svg>