<svg xmlns="http://www.w3.org/2000/svg" width="20" height="14" fill="none" viewBox="0 0 20 14"><g clip-path="url(#a)"><path fill="#4a4a4a" d="M19.584 2.186A2.5 2.5 0 0 0 17.815.418C16.255 0 10 0 10 0S3.745 0 2.186.418A2.5 2.5 0 0 0 .418 2.186C0 3.746 0 7 0 7s0 3.255.418 4.814c.23.86.907 1.537 1.768 1.768C3.746 14 10 14 10 14s6.255 0 7.814-.418a2.5 2.5 0 0 0 1.768-1.768C20 10.254 20 7 20 7s0-3.255-.418-4.814z"/><path fill="#fff" d="M8 10.001V4.002l5.198 3z"/></g><defs><clipPath id="a"><path fill="#fff" d="M0 0h20v14H0z"/></clipPath></defs></svg>