<svg xmlns="http://www.w3.org/2000/svg" width="281" height="24" fill="none" viewBox="0 0 281 24"><g clip-path="url(#a)"><path fill="#282828" d="M50.92 21.832q-1.04-.686-1.481-2.133Q49 18.252 49 15.849v-2.181q0-2.428.502-3.898t1.569-2.145q1.065-.674 2.798-.674c1.155 0 2.047.228 2.734.685q1.028.689 1.505 2.145.476 1.461.476 3.887v2.181q0 2.405-.465 3.86-.464 1.462-1.504 2.134-1.04.675-2.821.675c-1.187 0-2.178-.229-2.874-.686m3.887-2.354c.19-.49.289-1.29.289-2.401v-4.682c0-1.078-.095-1.869-.289-2.365q-.289-.749-1.016-.748c-.485 0-.8.248-.99.748q-.29.749-.29 2.365v4.682q0 1.668.278 2.401.275.737 1.002.737t1.016-.737M104.205 15.886v.76q0 1.446.086 2.17.087.722.364 1.055.277.33.852.33c.517 0 .875-.197 1.066-.59q.289-.589.314-1.961l2.986.172q.026.195.026.54 0 2.082-1.166 3.112t-3.298 1.03q-2.56.001-3.587-1.57-1.03-1.569-1.028-4.853v-2.625q0-3.383 1.066-4.942 1.064-1.557 3.65-1.557 1.78-.001 2.735.637.953.639 1.342 1.987.39 1.35.39 3.728v2.574h-5.795zm.439-6.325q-.263.319-.353 1.042-.086.722-.086 2.196v1.078h2.532v-1.078q0-1.448-.101-2.196-.099-.749-.364-1.056-.264-.306-.814-.307c-.367 0-.641.107-.814.319zM42.49 15.607 38.55 1.705h3.437l1.38 6.302q.528 2.328.777 3.97h.101q.175-1.176.777-3.948l1.43-6.324h3.436L45.9 15.607v6.669h-3.413v-6.67zM69.765 7.244v15.031h-2.709l-.3-1.84h-.075q-1.104 2.083-3.312 2.083-1.53-.001-2.258-.98-.728-.981-.728-3.064V7.244h3.462v11.032q0 1.007.225 1.434t.754.429q.45 0 .867-.271c.277-.18.479-.41.615-.686V7.244h3.462zM87.523 7.244v15.031h-2.709l-.3-1.84h-.075q-1.105 2.083-3.312 2.083-1.53-.001-2.259-.98-.727-.981-.727-3.064V7.244h3.462v11.032q0 1.007.225 1.434t.754.429q.451 0 .866-.271c.278-.18.48-.41.615-.686V7.244h3.463z"/><path fill="#282828" d="M79.17 4.425h-3.436v17.85h-3.387V4.426H68.91v-2.72h10.26zM98.98 9.646q-.315-1.422-1.016-2.06t-1.932-.638q-.954 0-1.782.528a3.6 3.6 0 0 0-1.28 1.385h-.025V.942h-3.336v21.33h2.86l.352-1.422h.075c.268.508.67.906 1.204 1.202a3.64 3.64 0 0 0 1.782.44q1.756 0 2.584-1.58t.829-4.941v-2.38c0-1.681-.104-3-.315-3.948zm-3.174 6.133q0 1.643-.138 2.573-.138.933-.465 1.324-.327.393-.878.392a1.6 1.6 0 0 1-.791-.197 1.5 1.5 0 0 1-.59-.587v-8.532q.174-.612.604-1.004c.283-.263.595-.393.927-.393q.529.001.815.404.289.404.401 1.36t.113 2.72v1.937zM34.35 3.748c-.405-1.476-1.591-2.636-3.102-3.031C28.511 0 17.54 0 17.54 0S6.57 0 3.835.717c-1.51.395-2.697 1.555-3.102 3.03C0 6.422 0 12 0 12s0 5.58.733 8.252c.405 1.476 1.592 2.636 3.102 3.031C6.57 24 17.54 24 17.54 24s10.97 0 13.705-.717c1.51-.395 2.698-1.555 3.102-3.03.733-2.674.733-8.253.733-8.253s0-5.58-.733-8.252z"/><path fill="#fff" d="M14.031 17.142V6.858L23.148 12z"/></g><path fill="#282828" d="M130.688 19v-1.424l5.52-8.448h-4.992V7.144h7.904v1.424l-5.52 8.448h5.568V19zm10.581 0V7.144h7.264v1.984h-4.896v2.736h4.16v1.984h-4.16v3.168h5.072V19zm12.419-6.176-.352 1.296h2.816l-.352-1.296c-.368-1.232-.688-2.592-1.024-3.872h-.08a85 85 0 0 1-1.008 3.872M149.592 19l3.792-11.856h2.784L159.976 19h-2.48l-.832-3.04h-3.84l-.832 3.04zm11.77 0V7.144h2.368v9.872h4.816V19zm17.026-12.384 1.904-.784c.928 1.872 2.752 4.112 4.208 5.456-.496.4-1.232 1.136-1.6 1.664-1.504-1.616-3.344-4.144-4.512-6.336m-4.496-.816 2.176.624c-1.024 2.512-2.704 4.992-4.336 6.512-.384-.4-1.328-1.12-1.824-1.424 1.648-1.296 3.152-3.488 3.984-5.712m4.768 8.976 1.856-.864c1.392 1.728 2.896 3.984 3.68 5.52l-1.984 1.04c-.16-.384-.384-.816-.656-1.28-3.84.256-7.872.496-10.688.624l-.256-2 2.224-.08c1.024-1.904 2.128-4.464 2.736-6.464l2.288.528c-.832 1.968-1.872 4.112-2.848 5.84 1.728-.08 3.6-.176 5.456-.272a43 43 0 0 0-1.808-2.592m12.272-1.088v3.52c.976-.176 2-.368 2.976-.56l.144 1.696c-2.624.576-5.44 1.152-7.504 1.6l-.528-1.92c.816-.128 1.872-.288 3.024-.48v-3.856h-2.416v-1.84h6.864v1.84zm9.392-3.664h-4.336c.336 4.672 1.312 8.368 2.48 8.368.336 0 .528-.848.608-2.88.432.448 1.136.912 1.664 1.12-.288 3.024-.928 3.76-2.448 3.76-2.736 0-3.936-4.736-4.32-10.368h-7.952V8.168h7.856a72 72 0 0 1-.048-2.64h2.048c-.016.88-.016 1.776.016 2.64h2.528c-.432-.544-1.232-1.2-1.872-1.68l1.264-1.04c.72.496 1.664 1.248 2.096 1.776l-1.088.944h1.504zm3.28-2.512c1.216.032 3.696 0 5.456-.256 1.6-.224 3.232-.592 4.032-.96l1.312 1.76c-.544.128-.96.24-1.232.304-.784.208-1.728.384-2.688.528v2.544h4.032c.352 0 1.104-.064 1.456-.096V13.4a21 21 0 0 0-1.408-.064h-4.144c-.24 2.688-1.392 4.96-4.096 6.592l-2.032-1.392c2.432-1.12 3.712-2.832 4.016-5.2h-4.4c-.496 0-1.088.032-1.504.064v-2.064c.432.048.976.096 1.472.096h4.512V9.16c-1.536.128-3.216.176-4.288.208zM223.4 8.84c.064.368.16.8.256 1.216.112.384.256.928.432 1.552 2.032-.384 4.272-.816 4.896-.96a3 3 0 0 0 .816-.256l1.28.912c-.672 1.408-2.288 3.808-3.408 5.008l-1.76-.88c.816-.736 1.936-2.096 2.368-2.88-.384.064-1.984.4-3.712.752a682 682 0 0 0 1.536 5.504c.096.272.304.992.432 1.312l-2.176.544a9 9 0 0 0-.288-1.408c-.24-.864-.896-3.36-1.472-5.536-1.344.288-2.512.528-2.992.64l-.496-1.92a16 16 0 0 0 1.472-.192c.224-.032.8-.128 1.536-.272a29 29 0 0 0-.416-1.488 5.6 5.6 0 0 0-.448-1.136zm13.456-2c1.12.752 3.2 2.416 4.128 3.392l-1.632 1.664c-.832-.896-2.832-2.64-4-3.456zm-2 10.656c2.496-.352 4.576-1.168 6.128-2.096 2.736-1.616 4.816-4.064 5.824-6.224l1.248 2.256c-1.216 2.16-3.344 4.368-5.92 5.92-1.616.976-3.68 1.872-5.936 2.256zM257.92 5.928c-.048.384-.096.976-.096 1.472v.832h1.92c.496 0 .944-.048 1.328-.16l1.328 1.296c-.416.4-.896.944-1.248 1.328a24 24 0 0 1-3.36 3.136c0 1.28-.016 3.024-.016 4.032 0 .64.064 1.552.112 2.048h-2.304c.064-.448.128-1.408.128-2.048v-2.736c-1.472.784-3.184 1.44-4.913 1.968l-1.231-1.888c3.088-.688 5.136-1.792 6.528-2.672 1.232-.8 2.224-1.728 2.688-2.384h-5.792c-.576 0-1.584.016-2.08.064V8.12c.608.096 1.488.112 2.048.112h2.768V7.4c0-.496-.032-1.072-.096-1.472zm4.704 11.328a25 25 0 0 0-3.824-2.544l1.328-1.536c1.472.8 2.304 1.264 3.84 2.32zm10.112 1.392c.064-.304.128-.752.128-1.184V8.136c0-.72-.112-1.328-.128-1.376h2.384a8 8 0 0 0-.112 1.392v8.368c1.296-.56 2.88-1.824 3.952-3.376l1.232 1.76c-1.328 1.728-3.632 3.456-5.424 4.368a3.4 3.4 0 0 0-.688.48zm-7.408-.24c1.408-.992 2.272-2.464 2.72-3.824.448-1.376.464-4.4.464-6.336 0-.64-.048-1.072-.144-1.472h2.352c-.016.08-.112.784-.112 1.456 0 1.888-.048 5.264-.48 6.88-.48 1.808-1.488 3.376-2.848 4.592z"/><defs><clipPath id="a"><path fill="#fff" d="M0 0h110v24H0z"/></clipPath></defs></svg>