<svg xmlns="http://www.w3.org/2000/svg" width="300" height="87" fill="none" viewBox="0 0 300 87"><g clip-path="url(#a)"><path fill="#8a10a0" d="M140.743 0H0v29h140.743z"/><path fill="#fff" d="M140.743 29H0v29h140.743z"/><path fill="#ff8d02" d="M140.743 58H0v29h140.743z"/><path fill="#8a10a0" d="M186.502 49.707a3.4 3.4 0 0 0-.511-.95 2.5 2.5 0 0 0-.685-.613 3 3 0 0 0-.74-.312v-.037q.675-.275 1.188-.968c.341-.461.513-1.097.513-1.9q0-1.005-.348-1.636a2.75 2.75 0 0 0-.878-.986 3.3 3.3 0 0 0-1.169-.493 6 6 0 0 0-1.206-.138h-3.721v.156c.156 0 .285.131.285.287v12.054a.285.285 0 0 1-.285.282v.156h4.122q.62 0 1.268-.18a3.2 3.2 0 0 0 1.17-.614q.52-.43.859-1.113.34-.686.34-1.71 0-.73-.202-1.287zm-5.207-6.205h1.199q.346 0 .672.092.326.09.572.301.246.21.401.548.152.34.153.832 0 .492-.153.842-.155.346-.401.566-.244.216-.563.319-.319.1-.645.099h-1.235v-3.602zm3.151 8.187a1.8 1.8 0 0 1-.418.613 1.7 1.7 0 0 1-.609.366q-.344.117-.746.118h-1.38v-4.04h1.326q.346.001.69.11.346.11.635.356.291.247.473.638.18.394.181.959 0 .512-.154.878zM209.519 43.212a4.3 4.3 0 0 0-1.471-1.38q-.869-.485-1.947-.484c-.719 0-1.387.16-1.966.484a4.26 4.26 0 0 0-1.47 1.38c-.403.595-.706 1.31-.914 2.135q-.311 1.244-.31 2.778 0 1.535.319 2.788.32 1.252.923 2.146.604.897 1.461 1.39.859.494 1.955.493c.73 0 1.366-.166 1.947-.494a4.36 4.36 0 0 0 1.47-1.389q.605-.895.923-2.146.322-1.253.321-2.788 0-1.534-.321-2.778c-.212-.825-.52-1.54-.923-2.135zm-1.167 6.768q-.148.868-.448 1.507-.302.64-.749 1.007a1.6 1.6 0 0 1-1.052.364q-.602.001-1.052-.364-.447-.367-.748-1.007a5.7 5.7 0 0 1-.448-1.507 11 11 0 0 1-.145-1.855q0-.985.145-1.855.145-.868.448-1.497.301-.63.748-.998a1.6 1.6 0 0 1 1.052-.364c.403 0 .735.122 1.032.364q.446.366.751.998.3.63.457 1.497.156.871.156 1.855 0 .986-.145 1.855zM234.132 54.614c-.231.002-.292-.039-.4-.263l-3.129-6.556 2.805-5.834c.113-.24.172-.28.405-.278l.007-.156h-2.927v.156c.305 0 .398.007.287.271l-1.782 4.179-1.798-4.183c-.118-.274-.039-.276.285-.276v-.156h-2.966v.156c.238-.003.294.038.41.278l2.791 5.843-3.108 6.552c-.111.228-.17.27-.403.265v.156h2.966v-.156h-.003c-.316 0-.395-.007-.289-.263l2.058-4.69 2.041 4.686c.108.262.029.267-.29.267h.018-.02v.156h3.04v-.156zM252.401 54.614a.283.283 0 0 1-.283-.283V41.958c0-.156.129-.282.283-.282v-.157h-2.753v.157c.159 0 .276.129.276.285v12.37a.28.28 0 0 1-.276.285v.156h2.755v-.156zM276.634 54.329v-12.37c0-.159.129-.285.285-.285v-.156h-2.461v.156c.158 0 .276.129.276.285l.018 8.908h-.056l-3.502-8.85c-.056-.144.007-.305.161-.341v-.156h-3.085v.156c.158 0 .285.129.285.285v12.37a.283.283 0 0 1-.283.283v.156h2.535v-.156a.28.28 0 0 1-.276-.285l-.038-8.852h.054l3.538 8.8c.052.142-.009.3-.161.337l-.002.156h2.993v-.156a.286.286 0 0 1-.285-.285zM220.47 68.82a.287.287 0 0 1-.285.285h-6.451a.287.287 0 0 1-.285-.285h-.156v2.426h.156c0-.159.129-.276.285-.276h2.147v10.795a.28.28 0 0 1-.279.285l.005.156h2.719v-.158a.285.285 0 0 1-.285-.283V70.969h2.146c.156 0 .285.118.285.277h.156V68.82h-.158M272.872 81.118c-.09-.095-.301-.058-.341-.004l-.125-.093 1.536-2.081.125.09a.41.41 0 0 0-.019.426c.247.255.521.477.844.635q.594.295 1.215.294.695 0 1.151-.475t.457-1.334c0-.573-.183-1.007-.55-1.335q-.55-.493-1.388-.914a8 8 0 0 1-.998-.566 3.8 3.8 0 0 1-.823-.742 3.4 3.4 0 0 1-.568-1.004q-.21-.576-.21-1.382 0-1.006.321-1.729.318-.72.841-1.197a3.35 3.35 0 0 1 1.179-.703 4 4 0 0 1 1.334-.229q.986 0 1.764.32.621.257 1.086.705l.077.075c.156.115.24.034.308-.048l.124.095-1.556 2.03-.122-.095a.38.38 0 0 0 .018-.412c-.448-.453-.984-.692-1.622-.692q-.309-.002-.604.1a1.5 1.5 0 0 0-.531.32 1.5 1.5 0 0 0-.376.566q-.135.35-.136.823-.001.824.494 1.272.494.447 1.298.85.476.241.968.55.493.311.896.751.4.439.658 1.04.257.605.255 1.428 0 .953-.3 1.681-.303.733-.806 1.235a3.3 3.3 0 0 1-1.18.758q-.675.255-1.425.256a4.7 4.7 0 0 1-1.993-.42c-.509-.234-.941-.505-1.28-.842zM191.32 23.444a.48.48 0 0 1-.478.48h-7.806l8.284-15.467V5.473h-11.403a.48.48 0 0 1-.477-.48h-.262v4.203h.262c0-.264.215-.463.48-.463h7.344L178.949 24.2v3.045h11.911c.258.009.464.217.464.475h.263v-4.276h-.267M265.406 27.245h-.002l-.308-.136c-.133-.083-.265-.199-.296-.328L259.735 6.05a.48.48 0 0 1 .358-.575v-.262h-5.703v.262c.254.061.412.31.358.566l-5.157 20.743c-.062.258-.527.466-.607.466v.262h4.673l-.004-.262a.48.48 0 0 1-.353-.561l.973-4.052h5.72l.943 4.04a.48.48 0 0 1-.353.575h-.004v.262h4.827v-.269m-10.672-7.504 2.368-10.793h.123l2.304 10.793h-4.797zM299.653 23.367a.465.465 0 0 1-.479.464h-6.517V5.952c0-.265.215-.477.48-.477V5.21h-4.664v.262c.264 0 .466.215.466.48v21.292h10.235a.48.48 0 0 1 .479.478h.263v-4.357h-.263zM295.847 46.98h-.156v2.46h.156a.27.27 0 0 1 .278-.276h1.294v3.344q-.219.166-.577.265a2.9 2.9 0 0 1-.794.101q-.696 0-1.198-.366-.502-.365-.831-1.014a5.7 5.7 0 0 1-.493-1.517 10 10 0 0 1-.165-1.853c0-.656.057-1.238.165-1.81a5.7 5.7 0 0 1 .493-1.509q.33-.647.831-1.032a1.9 1.9 0 0 1 1.178-.384c.749 0 1.35.303 1.819.88.065.12.063.29-.028.4l.12.1 1.452-1.767.172-.21-.122-.098c-.099.122-.228.12-.314.036l-.034-.036a3.6 3.6 0 0 0-1.203-.939q-.84-.413-1.993-.411c-.769 0-1.389.167-1.973.502a4.6 4.6 0 0 0-1.499 1.407q-.621.904-.95 2.147-.33 1.241-.33 2.724c0 .988.113 1.93.339 2.76q.336 1.241.968 2.138a4.4 4.4 0 0 0 1.545 1.38c.608.32 1.296.486 2.065.486s1.402-.1 1.945-.294a4.7 4.7 0 0 0 1.398-.767v-6.56h-3.28a.284.284 0 0 1-.282-.286zM200.686 82.048a.28.28 0 0 1-.282-.283V69.393c0-.156.129-.283.282-.283v-.156h-2.752v.156c.158 0 .276.13.276.285v12.37a.28.28 0 0 1-.276.285v.157h2.755v-.157zM240.97 81.765v-12.37c0-.158.129-.285.285-.285v-.156h-2.461v.156c.158 0 .276.13.276.285l.018 8.91h-.056l-3.502-8.85c-.056-.146.007-.306.161-.343v-.156h-3.086v.156c.159 0 .285.13.285.285v12.37a.28.28 0 0 1-.282.283v.157h2.535v-.157a.28.28 0 0 1-.276-.285l-.038-8.852h.054l3.538 8.8c.052.143-.009.301-.161.337l-.002.157h2.993v-.157a.286.286 0 0 1-.285-.285zM259.869 79.8a.28.28 0 0 1-.285.275h-3.59v-3.807h3.133c.158 0 .285.129.285.285h.156V74.2h-.156a.28.28 0 0 1-.285.276h-3.133v-3.4h3.407c.158 0 .285.13.285.285h.156v-2.536h-.156a.28.28 0 0 1-.285.276h-5.51v12.947h5.691c.158 0 .285.13.285.285h.156v-2.536h-.156zM292.333 81.118c-.09-.095-.301-.058-.341-.004l-.125-.093 1.536-2.081.124.09a.41.41 0 0 0-.018.426c.247.255.521.477.844.635q.594.295 1.215.294.696 0 1.151-.475.457-.475.457-1.334c0-.573-.183-1.007-.55-1.335q-.55-.493-1.389-.914a8 8 0 0 1-.997-.566 3.8 3.8 0 0 1-.823-.742 3.4 3.4 0 0 1-.568-1.004q-.21-.576-.21-1.382 0-1.006.321-1.729.318-.72.841-1.197a3.35 3.35 0 0 1 1.179-.703 4 4 0 0 1 1.334-.229q.986 0 1.764.32.621.257 1.086.705l.077.075c.156.115.24.034.308-.048l.124.095-1.556 2.03-.122-.095a.38.38 0 0 0 .018-.412c-.448-.453-.984-.692-1.622-.692q-.309-.002-.604.1a1.5 1.5 0 0 0-.531.32 1.5 1.5 0 0 0-.376.566q-.135.35-.136.823-.001.824.493 1.272.496.447 1.299.85.475.241.968.55.493.311.896.751.4.439.658 1.04.257.605.255 1.428 0 .953-.3 1.681-.303.733-.806 1.235a3.3 3.3 0 0 1-1.18.758 4 4 0 0 1-1.425.256 4.7 4.7 0 0 1-1.993-.42c-.509-.234-.941-.505-1.28-.842zM226.526 23.47a.47.47 0 0 1-.477.465h-7.039v-6.404h6.267c.265 0 .478.215.478.477h.262V14.05h-.26a.47.47 0 0 1-.477.466h-6.268V8.796h6.729c.265 0 .477.215.477.477h.263V5.007h-.26a.47.47 0 0 1-.478.466h-10.266v21.786h10.574c.265 0 .477.214.477.477h.263v-4.267h-.265M185.034 68.827a.28.28 0 0 1-.285.276h-5.512v12.662a.28.28 0 0 1-.276.285v.156h2.755v-.156a.286.286 0 0 1-.285-.283v-5.275h3.042c.159 0 .285.129.285.285h.156v-2.428h-.156a.277.277 0 0 1-.285.276h-3.044v-3.547h3.316c.158 0 .285.127.285.285h.156v-2.536h-.154z"/></g><defs><clipPath id="a"><path fill="#fff" d="M0 0h300v87H0z"/></clipPath></defs></svg>