<svg width="24" height="23" viewBox="0 0 24 23" fill="none" xmlns="http://www.w3.org/2000/svg">
<g clip-path="url(#clip0_30_9456)">
<path d="M24 9.7946C24 4.39388 18.6169 0 12 0C5.38307 0 0 4.39388 0 9.7946C0 14.6365 4.26957 18.691 10.0362 19.458C10.4265 19.5428 10.9585 19.717 11.0934 20.053C11.2149 20.3585 11.1722 20.8359 11.1328 21.1447C11.1328 21.1447 10.9922 21.9966 10.9619 22.1776C10.909 22.483 10.7212 23.3711 12.0011 22.828C13.2822 22.285 18.9116 18.7351 21.4288 15.8209C23.1677 13.9023 24.0011 11.9565 24.0011 9.7946H24Z" fill="white"/>
<path d="M20.0066 12.9134H16.6357C16.5086 12.9134 16.4062 12.8104 16.4062 12.6826V12.6792V7.42101V7.41535C16.4062 7.28752 16.5086 7.18457 16.6357 7.18457H20.0066C20.1326 7.18457 20.236 7.28865 20.236 7.41535V8.27173C20.236 8.39956 20.1337 8.50251 20.0066 8.50251H17.7155V9.39169H20.0066C20.1326 9.39169 20.236 9.49577 20.236 9.62247V10.4788C20.236 10.6067 20.1337 10.7096 20.0066 10.7096H17.7155V11.5988H20.0066C20.1326 11.5988 20.236 11.7029 20.236 11.8296V12.686C20.236 12.8138 20.1337 12.9168 20.0066 12.9168V12.9134Z" fill="#06C755"/>
<path d="M7.53506 12.9135C7.66103 12.9135 7.76451 12.8106 7.76451 12.6827V11.8264C7.76451 11.6997 7.66103 11.5956 7.53506 11.5956H5.24393V7.41437C5.24393 7.28767 5.14045 7.18359 5.01448 7.18359H4.16304C4.03595 7.18359 3.93359 7.28654 3.93359 7.41437V12.6782V12.6827C3.93359 12.8106 4.03595 12.9135 4.16304 12.9135H7.53393H7.53506Z" fill="#06C755"/>
<path d="M9.56414 7.18472H8.71382C8.5871 7.18472 8.48438 7.28805 8.48438 7.4155V12.6827C8.48438 12.8102 8.5871 12.9135 8.71382 12.9135H9.56414C9.69086 12.9135 9.79359 12.8102 9.79359 12.6827V7.4155C9.79359 7.28805 9.69086 7.18472 9.56414 7.18472Z" fill="#06C755"/>
<path d="M15.3586 7.18457H14.5072C14.3801 7.18457 14.2777 7.28752 14.2777 7.41535V10.5433L11.882 7.28865C11.8764 7.28073 11.8696 7.27281 11.864 7.26489C11.864 7.26489 11.864 7.26489 11.8629 7.26376C11.8584 7.25923 11.8539 7.25358 11.8494 7.24905C11.8483 7.24792 11.846 7.24679 11.8449 7.24566C11.8404 7.24227 11.837 7.23887 11.8325 7.23548C11.8303 7.23435 11.828 7.23208 11.8258 7.23095C11.8224 7.22756 11.8179 7.2253 11.8134 7.22303C11.8111 7.2219 11.8089 7.21964 11.8066 7.21851C11.8021 7.21625 11.7988 7.21398 11.7943 7.21172C11.792 7.21059 11.7898 7.20946 11.7875 7.20833C11.783 7.20606 11.7785 7.2038 11.774 7.20267C11.7718 7.20267 11.7695 7.20041 11.7662 7.20041C11.7617 7.19928 11.7572 7.19701 11.7527 7.19588C11.7504 7.19588 11.747 7.19475 11.7448 7.19362C11.7403 7.19362 11.7358 7.19136 11.7313 7.19023C11.7279 7.19023 11.7245 7.19023 11.7212 7.1891C11.7167 7.1891 11.7133 7.18796 11.7088 7.18796C11.7043 7.18796 11.7009 7.18796 11.6964 7.18796C11.6942 7.18796 11.6908 7.18796 11.6885 7.18796H10.8427C10.7168 7.18796 10.6133 7.29091 10.6133 7.41875V12.686C10.6133 12.8127 10.7156 12.9168 10.8427 12.9168H11.6942C11.8213 12.9168 11.9236 12.8138 11.9236 12.686V9.55799L14.3227 12.8172C14.3396 12.841 14.3598 12.8602 14.3823 12.8749C14.3823 12.8749 14.3846 12.876 14.3846 12.8772C14.3891 12.8806 14.3936 12.8828 14.3992 12.8862C14.4015 12.8873 14.4037 12.8885 14.406 12.8896C14.4093 12.8919 14.4138 12.893 14.4172 12.8953C14.4206 12.8975 14.4251 12.8987 14.4284 12.8998C14.4307 12.8998 14.4329 12.902 14.4352 12.902C14.4408 12.9043 14.4453 12.9054 14.4509 12.9066C14.4509 12.9066 14.4532 12.9066 14.4543 12.9066C14.4734 12.9111 14.4937 12.9145 14.5139 12.9145H15.3597C15.4857 12.9145 15.5892 12.8115 15.5892 12.6837V7.41648C15.5892 7.28978 15.4868 7.1857 15.3597 7.1857L15.3586 7.18457Z" fill="#06C755"/>
</g>
<defs>
<clipPath id="clip0_30_9456">
<rect width="24" height="23" fill="white"/>
</clipPath>
</defs>
</svg>
