<svg width="16" height="16" viewBox="0 0 16 16" fill="none" xmlns="http://www.w3.org/2000/svg">
<g clip-path="url(#clip0_30_9472)">
<path d="M14.8499 1.14731C13.32 -0.382357 10.8353 -0.382357 9.30575 1.14731L6.08835 4.36452C5.16206 5.2909 4.79609 6.56205 4.98968 7.76137C5.06876 8.27117 5.25528 8.7739 5.54264 9.21913C5.69363 9.4705 5.87318 9.69312 6.08863 9.90857L6.71322 10.5333L7.85506 9.39142L7.23046 8.76674C7.00785 8.54412 6.84263 8.29266 6.73481 8.02688C6.39014 7.19399 6.56252 6.18863 7.23763 5.51352L10.4547 2.29631C11.3523 1.39858 12.8031 1.39858 13.7009 2.29631C14.5984 3.19394 14.5984 4.64463 13.7009 5.54227L12.171 7.07194C12.4081 7.71095 12.5087 8.40048 12.4725 9.08257L14.8568 6.69833C16.3863 5.16866 16.3792 2.6767 14.8498 1.14722L14.8499 1.14731Z" fill="#4A4A4A"/>
<path d="M10.4689 6.77738C10.3182 6.5262 10.1315 6.29633 9.91591 6.08087L9.29829 5.46326L8.14929 6.61225L8.76691 7.22987C8.98934 7.45239 9.16163 7.71092 9.26229 7.98377C9.60696 8.81685 9.43486 9.80798 8.75965 10.483L5.54254 13.7002C4.64471 14.5979 3.19393 14.5979 2.29639 13.7002C1.39885 12.8026 1.39885 11.3519 2.29639 10.4542L3.82597 8.92457C3.59609 8.27821 3.49544 7.58877 3.53163 6.92092L1.14739 9.30515C-0.382465 10.8348 -0.382465 13.3195 1.14739 14.8492C2.67697 16.3788 5.16884 16.3859 6.69841 14.8564L9.91581 11.6392C10.8421 10.7128 11.2012 9.43456 11.0073 8.23533C10.9354 7.71818 10.749 7.22987 10.4688 6.77738H10.4689Z" fill="#4A4A4A"/>
</g>
<defs>
<clipPath id="clip0_30_9472">
<rect width="16" height="16" fill="white"/>
</clipPath>
</defs>
</svg>
