<svg xmlns="http://www.w3.org/2000/svg" width="80" height="80" fill="none" viewBox="0 0 80 80"><path fill="#8a10a0" d="M80 80h-.137L0 .137V0h80z"/><path fill="#fff" d="m35.417 20.216-1.247-1.247 9.202-9.203 1.247 1.248-2.405 11.824 7.115-7.115 1.247 1.247-9.202 9.203-1.248-1.248 2.406-11.824zM45.846 30.95c-1.833-1.832-1.77-4.416.165-6.35 1.948-1.948 4.531-2.063 6.339-.255 1.77 1.769 1.705 4.149-.14 5.994l-.446.446-4.824-4.799c-1.221 1.4-1.26 2.813-.076 3.997.93.93 1.922 1.158 2.839.65l1.12 1.12c-1.642 1.03-3.437.737-4.977-.803m5.498-5.6c-1.043-1.044-2.329-1.082-3.576-.14l3.59 3.59c1.03-1.032 1.043-2.393-.014-3.45m-.007 10.786 4.187-8.26 1.235 1.234-2.202 4.264a23 23 0 0 1-1.095 1.858c.65-.446 1.337-.802 1.884-1.07l4.277-2.188 1.221 1.222-2.202 4.263a30 30 0 0 1-1.069 1.884 18 18 0 0 1 1.871-1.082l4.277-2.189 1.247 1.247-8.35 4.099-1.132-1.133 2.253-4.417c.42-.827.776-1.438 1.056-1.845-.369.242-.89.534-1.87 1.056l-4.405 2.24z"/></svg>