<svg width="60" height="60" viewBox="0 0 60 60" fill="none" xmlns="http://www.w3.org/2000/svg">
<path d="M60 60H59.8975L0 0.102539V0H60V60Z" fill="#4A4A4A"/>
<path d="M36.75 27C36.2687 27 35.8568 26.8321 35.5141 26.4964C35.1714 26.1607 35 25.7571 35 25.2857V16.7143C35 16.2429 35.1714 15.8393 35.5141 15.5036C35.8568 15.1679 36.2687 15 36.75 15H37.625V13.2857C37.625 12.1 38.0516 11.0893 38.9047 10.2536C39.7578 9.41786 40.7896 9 42 9C43.2104 9 44.2422 9.41786 45.0953 10.2536C45.9484 11.0893 46.375 12.1 46.375 13.2857V15H47.25C47.7312 15 48.1432 15.1679 48.4859 15.5036C48.8286 15.8393 49 16.2429 49 16.7143V25.2857C49 25.7571 48.8286 26.1607 48.4859 26.4964C48.1432 26.8321 47.7312 27 47.25 27H36.75ZM42 22.7143C42.4812 22.7143 42.8932 22.5464 43.2359 22.2107C43.5786 21.875 43.75 21.4714 43.75 21C43.75 20.5286 43.5786 20.125 43.2359 19.7893C42.8932 19.4536 42.4812 19.2857 42 19.2857C41.5187 19.2857 41.1068 19.4536 40.7641 19.7893C40.4214 20.125 40.25 20.5286 40.25 21C40.25 21.4714 40.4214 21.875 40.7641 22.2107C41.1068 22.5464 41.5187 22.7143 42 22.7143ZM39.375 15H44.625V13.2857C44.625 12.5714 44.3698 11.9643 43.8594 11.4643C43.349 10.9643 42.7292 10.7143 42 10.7143C41.2708 10.7143 40.651 10.9643 40.1406 11.4643C39.6302 11.9643 39.375 12.5714 39.375 13.2857V15Z" fill="white"/>
</svg>
