<svg width="80" height="80" viewBox="0 0 80 80" fill="none" xmlns="http://www.w3.org/2000/svg">
<path d="M80 79.9033C80 79.9567 79.9567 80 79.9033 80C79.8777 80 79.8531 79.9898 79.835 79.9717L0.0283186 0.165037C0.0101885 0.146907 0 0.122314 0 0.0966748C0 0.0432828 0.0432828 0 0.0966748 0H73.6C77.1346 0 80 2.86538 80 6.4V79.9033Z" fill="#8A10A0"/>
<path d="M37.8 8.45619L39.1463 9.80252C38.978 9.95101 38.7701 10.1391 38.5524 10.3371C37.2654 11.7824 33.4937 16.5441 35.4538 21.969C34.8103 21.8799 34.0481 21.9294 33.5432 22.0581C32.4147 18.7121 33.3452 15.564 34.6124 13.1881C32.2959 14.4355 29.3458 15.3066 25.98 14.4949C26.079 13.9801 26.0493 13.2376 25.9305 12.5645C32.0682 14.3266 36.424 9.69362 37.8 8.45619ZM43.7199 23.6816L44.4822 25.1962C43.6407 25.4437 42.7794 25.612 41.9083 25.6714C42.0964 26.7307 42.2053 27.7305 42.2053 28.5027L40.3739 28.4532C40.4135 27.7206 40.3343 26.7505 40.1858 25.711C38.6909 25.6417 37.2159 25.3348 35.8597 24.8695C35.929 24.4439 35.9488 23.5529 35.9092 23.0777C37.1862 23.642 38.5524 23.9786 39.9086 24.0875C39.7205 23.147 39.4928 22.2264 39.2651 21.4047L40.8787 21.474C41.1262 22.2561 41.3638 23.1668 41.5717 24.0875C42.3142 24.038 43.0269 23.8994 43.7199 23.6816ZM41.542 19.4248L47.8777 25.7605C45.482 28.1166 43.7397 30.1163 44.3139 30.6905C44.4723 30.829 45.0266 30.3539 45.8483 29.5718C45.8087 30.0668 45.8087 30.6608 45.878 31.0666C44.5514 32.215 43.8189 32.5318 43.0566 31.7695C41.6113 30.3242 43.215 28.1463 45.6899 25.5526L40.3838 20.2465L41.2054 19.4248L41.0371 19.4149C41.0074 18.9892 40.8292 18.0587 40.7104 17.6033C42.433 17.8409 44.4525 17.3063 46.2047 16.3263L47.1748 17.8112C46.8481 17.9795 46.5214 18.1478 46.1948 18.2963L52.0454 24.1469L51.0653 25.1269L44.7791 18.8408C44.5415 18.92 44.2941 18.9892 44.0565 19.0486L49.6992 24.6914L48.7488 25.6417L43.0368 19.9297L43.8684 19.0981C43.0566 19.2961 42.2746 19.405 41.542 19.4248ZM46.2146 33.1851L53.5501 25.8496L55.0449 27.3444L53.263 33.3831L52.4116 35.6996L52.4611 35.7491C53.1541 34.9175 54.0055 33.8286 54.837 32.997L57.7673 30.0668L59.1532 31.4527L51.8177 38.7882L50.3328 37.3033L52.1345 31.2646L52.966 28.9481L52.9165 28.8986C52.1939 29.7599 51.3821 30.7894 50.5406 31.6309L47.6005 34.5711L46.2146 33.1851ZM55.6886 42.9364C54.3027 41.5504 54.0948 39.2042 55.9361 37.3629C57.7774 35.5216 60.1236 35.7295 61.5095 37.1155C62.8954 38.5014 63.1033 40.8476 61.262 42.6889C59.4207 44.5302 57.0745 44.3223 55.6886 42.9364ZM56.8766 41.7484C57.6289 42.5008 58.7278 42.2533 59.7771 41.2039C60.8165 40.1645 61.0739 39.0558 60.3216 38.3034C59.5692 37.551 58.4605 37.8084 57.421 38.8479C56.3717 39.8972 56.1242 40.9961 56.8766 41.7484ZM60.2746 47.5224C59.7599 47.0076 59.7896 46.2057 60.3241 45.6712C60.8686 45.1267 61.6606 45.1069 62.1753 45.6217C62.7 46.1463 62.6802 46.9383 62.1357 47.4828C61.6012 48.0174 60.7993 48.0471 60.2746 47.5224ZM62.8405 49.8111L64.0186 48.6331L65.5926 50.2071L70.0375 45.7622L68.7109 44.4357L69.6118 43.5348C70.4829 44.1288 71.1759 44.4456 71.9283 44.6238L73.0073 45.7028L67.0478 51.6623L68.4238 53.0383L67.2458 54.2164L62.8405 49.8111Z" fill="white"/>
</svg>
