<svg width="18" height="21" viewBox="0 0 18 21" fill="none" xmlns="http://www.w3.org/2000/svg">
<path d="M16.7 8.36415C16.7 11.3669 12.6742 16.3397 10.3343 18.9764C9.47818 19.9411 7.92184 19.9411 7.06577 18.9764C4.72585 16.3397 0.700012 11.3669 0.700012 8.36415C0.700012 4.13133 4.28173 0.699951 8.70001 0.699951C13.1183 0.699951 16.7 4.13133 16.7 8.36415Z" stroke="white" stroke-width="1.4" stroke-linecap="round" stroke-linejoin="round"/>
<path d="M11.6719 8.08494C11.6719 9.59985 10.3415 10.8279 8.70046 10.8279C7.05938 10.8279 5.72903 9.59985 5.72903 8.08494C5.72903 6.57004 7.05938 5.34197 8.70046 5.34197C10.3415 5.34197 11.6719 6.57004 11.6719 8.08494Z" stroke="white" stroke-width="1.4" stroke-linecap="round" stroke-linejoin="round"/>
</svg>
